<?xml version="1.0" standalone="no"?><!DOCTYPE svg PUBLIC "-//W3C//DTD SVG 1.1//EN" "http://www.w3.org/Graphics/SVG/1.1/DTD/svg11.dtd"><svg t="1511862458192" class="icon" style="" viewBox="0 0 1024 1024" version="1.1" xmlns="http://www.w3.org/2000/svg" p-id="997" xmlns:xlink="http://www.w3.org/1999/xlink" width="200" height="200"><defs><style type="text/css"></style></defs><path d="M757.621117 399.491577l-27.533077 0L730.08804 292.809859c0-128.253012-91.396593-228.690516-221.245963-228.690516-130.370233 0-219.212654 102.577237-219.212654 228.690516L289.629423 399.491577l-27.533077 0c-60.71992 0-110.107747 50.130747-110.107747 111.790062l0 335.327208c0 61.659315 49.387827 111.790062 110.107747 111.790062l495.52477 0c60.71992 0 110.109794-50.130747 110.109794-111.790062l0-335.327208C867.73091 449.622324 818.341037 399.491577 757.621117 399.491577L757.621117 399.491577zM344.674087 292.809859c0-95.241154 64.147996-172.794461 164.169013-172.794461 98.974176 0 166.178787 75.894528 166.178787 172.794461L675.021887 399.491577 344.674087 399.491577 344.674087 292.809859 344.674087 292.809859zM812.663734 846.608847c0 30.829146-24.694425 55.895031-55.042617 55.895031L262.096347 902.503878c-30.349215 0-55.06513-25.065885-55.06513-55.895031l0-335.327208c0-30.830169 24.715915-55.895031 55.06513-55.895031l495.52477 0c30.348192 0 55.042617 25.066909 55.042617 55.895031L812.663734 846.608847 812.663734 846.608847zM509.846964 567.133691c-30.392194 0-55.04364 25.065885-55.04364 55.93801 0 20.691251 11.08036 38.740326 27.533077 48.40443l0 91.335195c0 15.414061 12.314467 27.90249 27.510564 27.90249 15.217586 0 27.533077-12.488429 27.533077-27.90249l0-91.338265c16.455787-9.665127 27.5341-27.713178 27.5341-48.40136C564.915164 592.198553 540.261671 567.133691 509.846964 567.133691L509.846964 567.133691z" p-id="998" fill="#e6e6e6"></path></svg>